<?xml version="1.0" standalone="no"?>
<!DOCTYPE svg PUBLIC "-//W3C//DTD SVG 20010904//EN"
 "http://www.w3.org/TR/2001/REC-SVG-20010904/DTD/svg10.dtd">
<svg version="1.0" xmlns="http://www.w3.org/2000/svg"
 width="2967.000000pt" height="2967.000000pt" viewBox="0 0 2967.000000 2967.000000"
 preserveAspectRatio="xMidYMid meet">
<metadata>
Created by potrace 1.14, written by Peter Selinger 2001-2017
</metadata>
<g transform="translate(0.000000,2967.000000) scale(0.100000,-0.100000)"
fill="#000000" stroke="none">
<path d="M26760 29647 c-14 -12 -56 -49 -94 -82 -96 -83 -134 -127 -169 -193
-153 -294 -378 -451 -790 -552 -65 -16 -137 -32 -160 -35 -23 -3 -58 -10 -77
-15 -19 -5 -64 -12 -100 -15 -36 -4 -74 -9 -85 -11 -28 -5 -20668 -4 -20835 1
-157 5 -275 12 -310 20 -114 23 -140 29 -180 42 -203 65 -402 202 -538 372
-73 91 -167 198 -278 316 -62 66 -121 131 -133 143 l-20 24 -51 -51 c-68 -68
-98 -134 -95 -209 2 -49 14 -82 87 -232 101 -206 193 -417 273 -625 64 -166
77 -203 225 -615 97 -273 223 -610 260 -695 10 -22 44 -101 75 -175 60 -139
102 -231 210 -455 34 -71 86 -179 114 -240 63 -131 91 -187 101 -198 4 -4 18
-3 31 2 13 6 42 15 65 21 40 10 41 11 63 87 12 43 24 89 27 103 2 14 7 31 9
39 3 7 6 209 6 447 0 462 1 472 52 570 53 101 165 161 334 179 58 5 125 13
173 20 14 2 48 7 75 10 28 4 61 8 75 10 14 2 45 7 70 10 25 3 56 8 70 10 14 2
57 7 95 11 39 3 79 8 90 11 11 2 117 7 235 10 307 9 7100 10 7190 0 41 -4 104
-10 140 -13 36 -4 74 -8 85 -9 11 -1 29 -3 40 -4 19 -1 20 -9 23 -108 2 -60 5
-128 9 -153 3 -25 7 -5551 9 -12280 1 -6729 3 -12359 4 -12510 2 -337 -9 -588
-35 -760 -2 -14 -7 -45 -10 -70 -70 -520 -269 -892 -590 -1102 -188 -122 -399
-194 -625 -213 -41 -3 -90 -8 -109 -11 -18 -2 -63 -7 -100 -10 -36 -3 -100
-12 -141 -21 -41 -8 -84 -17 -95 -19 -68 -13 -85 -17 -130 -31 -126 -39 -216
-107 -263 -200 -20 -38 -56 -162 -50 -168 14 -14 829 -18 3923 -18 1964 0
3592 3 3618 6 57 8 119 34 182 77 26 18 64 42 86 55 l40 22 -78 54 c-42 30
-95 65 -118 77 -40 24 -151 52 -304 78 -18 3 -43 8 -55 10 -11 2 -79 13 -151
24 -122 18 -168 23 -355 35 -244 17 -396 64 -555 171 -198 133 -344 339 -470
664 -50 129 -117 345 -130 419 -3 19 -7 37 -9 40 -2 3 -7 24 -10 46 -3 22 -9
53 -12 68 -16 77 -28 231 -27 347 0 52 0 221 0 375 -6 1216 0 24824 5 24870
15 128 51 196 126 234 44 22 62 27 160 37 78 8 6785 8 7282 0 425 -7 509 -14
697 -52 101 -20 238 -93 296 -155 137 -151 178 -358 181 -909 1 -244 1 -245
27 -295 24 -44 103 -115 129 -115 21 0 232 394 340 635 13 28 47 104 77 170
109 238 274 622 378 875 26 63 53 129 60 145 8 17 55 136 105 265 51 129 101
258 112 285 32 79 116 317 169 475 67 204 100 334 94 378 -10 68 -38 247 -39
249 -1 1 -13 -8 -26 -20z"/>
</g>
</svg>
