<?xml version="1.0" standalone="no"?>
<!DOCTYPE svg PUBLIC "-//W3C//DTD SVG 20010904//EN"
 "http://www.w3.org/TR/2001/REC-SVG-20010904/DTD/svg10.dtd">
<svg version="1.0" xmlns="http://www.w3.org/2000/svg"
 width="209.000000pt" height="209.000000pt" viewBox="0 0 209.000000 209.000000"
 preserveAspectRatio="xMidYMid meet">
<metadata>
Created by potrace 1.14, written by Peter Selinger 2001-2017
</metadata>
<g transform="translate(0.000000,209.000000) scale(0.100000,-0.100000)"
fill="#000000" stroke="none">
<path d="M313 2078 c-7 -7 -17 -27 -23 -43 -14 -37 -16 -253 -3 -266 14 -14
21 -2 29 47 14 92 72 136 203 152 76 9 398 8 408 -1 4 -5 8 -412 8 -905 1
-1009 5 -959 -69 -993 -23 -10 -52 -19 -66 -19 -37 0 -58 -16 -42 -32 8 -8 35
-11 80 -9 37 2 161 4 275 4 178 0 207 2 205 15 -2 8 -23 21 -48 28 -64 19 -84
32 -103 64 -16 26 -17 106 -17 933 0 846 1 905 17 911 18 7 382 8 446 1 84 -9
145 -68 153 -147 4 -45 23 -76 34 -58 12 19 4 256 -10 289 -16 39 -33 43 -150
33 -105 -10 -778 -8 -1106 3 -172 5 -212 4 -221 -7z"/>
</g>
</svg>
